<?xml version="1.0" encoding="UTF-8" standalone="no"?>
<svg width="412px" height="41px" viewBox="0 0 412 41" version="1.1" xmlns="http://www.w3.org/2000/svg" xmlns:xlink="http://www.w3.org/1999/xlink">
    <!-- Generator: Sketch 3.7.2 (28276) - http://www.bohemiancoding.com/sketch -->
    <title>PRISM ENCRYPTOR</title>
    <desc>Created with Sketch.</desc>
    <defs></defs>
    <g id="Page-1" stroke="none" stroke-width="1" fill="none" fill-rule="evenodd">
        <path d="M7.0234375,39 L0.751953125,39 L7.125,1.77734375 L19.5410156,1.77734375 C21.8431105,1.77734375 23.611973,2.10741857 24.8476562,2.76757812 C26.0833395,3.42773768 27.0777957,4.46451116 27.8310547,5.87792969 C28.5843137,7.29134821 28.9609375,9.02212518 28.9609375,11.0703125 C28.9609375,13.541679 28.5081425,15.8141172 27.6025391,17.8876953 C26.6969356,19.9612734 25.5712958,21.4973908 24.2255859,22.4960938 C22.8798761,23.4947967 21.2845144,24.1718732 19.4394531,24.5273438 C18.4407502,24.7135426 16.4603013,24.8066406 13.4980469,24.8066406 L9.4609375,24.8066406 L7.0234375,39 Z M10.5273438,18.6367188 L12.4570312,18.6367188 C15.554703,18.6367188 17.6663355,18.4251323 18.7919922,18.0019531 C19.9176489,17.5787739 20.8443974,16.8043676 21.5722656,15.6787109 C22.3001338,14.5530543 22.6640625,13.2454502 22.6640625,11.7558594 C22.6640625,10.1477784 22.1393282,9.03906555 21.0898438,8.4296875 C20.4804657,8.07421697 19.0755318,7.89648438 16.875,7.89648438 L12.3554688,7.89648438 L10.5273438,18.6367188 Z M35.5878906,39 L29.3164062,39 L35.6894531,1.77734375 L49.2734375,1.77734375 C51.7786584,1.77734375 53.6490824,2.10741857 54.8847656,2.76757812 C56.1204489,3.42773768 57.1233685,4.49413326 57.8935547,5.96679688 C58.6637408,7.43946049 59.0488281,9.30142104 59.0488281,11.5527344 C59.0488281,14.8535321 58.240568,17.4983625 56.6240234,19.4873047 C55.0074789,21.4762469 52.6842599,22.7076799 49.6542969,23.1816406 C50.5006553,24.1126349 51.3300741,25.4329342 52.1425781,27.1425781 C53.4967516,30.0201967 54.98632,33.9726311 56.6113281,39 L49.8574219,39 C49.5865872,37.9505156 48.6725338,35.0983306 47.1152344,30.4433594 C46.3027303,28.0566287 45.5579461,26.3724007 44.8808594,25.390625 C44.3899715,24.6966111 43.8906275,24.2226575 43.3828125,23.96875 C42.8749975,23.7148425 42.0201883,23.5878906 40.8183594,23.5878906 L38.2285156,23.5878906 L35.5878906,39 Z M39.1933594,18.0019531 L42.5195312,18.0019531 C45.6679845,18.0019531 47.7965439,17.8030619 48.9052734,17.4052734 C50.0140029,17.007485 50.9365198,16.275396 51.6728516,15.2089844 C52.4091834,14.1425728 52.7773438,12.9661523 52.7773438,11.6796875 C52.7773438,10.2747326 52.3118536,9.25065426 51.3808594,8.60742188 C50.83919,8.20116984 49.654306,7.99804688 47.8261719,7.99804688 L40.9199219,7.99804688 L39.1933594,18.0019531 Z M59.7089844,39 L66.0820312,1.77734375 L72.3535156,1.77734375 L65.9804688,39 L59.7089844,39 Z M72.7597656,26.9394531 L78.7265625,26.5585938 C78.8111983,28.5559996 79.0397117,29.9440065 79.4121094,30.7226562 C79.7845071,31.501306 80.4023394,32.1149066 81.265625,32.5634766 C82.1289106,33.0120465 83.3053311,33.2363281 84.7949219,33.2363281 C86.724619,33.2363281 88.1761019,32.8131553 89.1494141,31.9667969 C90.1227262,31.1204385 90.609375,30.0117256 90.609375,28.640625 C90.609375,27.6757764 90.3300809,26.8463576 89.7714844,26.1523438 C89.2128878,25.475257 87.7656367,24.5188864 85.4296875,23.2832031 C82.4674331,21.7089765 80.4996793,20.486007 79.5263672,19.6142578 C78.553055,18.7425087 77.7998074,17.6718813 77.2666016,16.4023438 C76.7333958,15.1328062 76.4667969,13.685555 76.4667969,12.0605469 C76.4667969,8.74282195 77.4400944,6.0937599 79.3867188,4.11328125 C81.3333431,2.1328026 83.9908686,1.14257812 87.359375,1.14257812 C90.7617358,1.14257812 93.4827372,2.12433914 95.5224609,4.08789062 C97.5621847,6.05144211 98.6835927,8.81899256 98.8867188,12.390625 L92.8691406,12.7207031 C92.5644516,9.04750768 90.719418,7.2109375 87.3339844,7.2109375 C85.6581947,7.2109375 84.4267617,7.56217097 83.6396484,8.26464844 C82.8525351,8.96712591 82.4589844,9.92772828 82.4589844,11.1464844 C82.4589844,12.2636775 82.8313765,13.1692674 83.5761719,13.8632813 C84.3040401,14.5742223 85.7766816,15.5221295 87.9941406,16.7070312 C90.9225407,18.2474035 92.8691358,19.4449827 93.8339844,20.2998047 C94.7988329,21.1546267 95.5393854,22.2040953 96.0556641,23.4482422 C96.5719427,24.692389 96.8300781,26.1015546 96.8300781,27.6757812 C96.8300781,31.1966322 95.7213653,34.0699758 93.5039062,36.2958984 C91.2864472,38.521821 88.3580911,39.6347656 84.71875,39.6347656 C81.9765488,39.6347656 79.6364029,39.0507871 77.6982422,37.8828125 C75.7600815,36.7148379 74.4397822,35.1575618 73.7373047,33.2109375 C73.0348272,31.2643132 72.7089841,29.1738393 72.7597656,26.9394531 L72.7597656,26.9394531 Z M117.802734,39 L111.835938,39 L110.744141,7.89648438 L105.894531,39 L100.232422,39 L106.605469,1.77734375 L115.568359,1.77734375 L116.507812,27.8535156 L126.917969,1.77734375 L135.957031,1.77734375 L129.583984,39 L123.845703,39 L129.863281,8.125 L117.802734,39 Z M147.636719,39 L154.009766,1.77734375 L176.632812,1.77734375 L175.566406,7.99804688 L159.240234,7.99804688 L157.792969,16.453125 L173.585938,16.453125 L172.519531,22.6738281 L156.726562,22.6738281 L154.974609,32.7792969 L172.519531,32.7792969 L171.478516,39 L147.636719,39 Z M200.474609,39 L194.609375,39 L186.357422,13.9902344 L182.091797,39 L176.226562,39 L182.599609,1.77734375 L188.464844,1.77734375 L196.716797,26.6855469 L200.982422,1.77734375 L206.847656,1.77734375 L200.474609,39 Z M228.962891,25.59375 L235.285156,26.7363281 C234.015619,31.052756 232.140963,34.2857965 229.661133,36.4355469 C227.181303,38.5852972 224.307959,39.6601562 221.041016,39.6601562 C217.384747,39.6601562 214.486013,38.32293 212.344727,35.6484375 C210.20344,32.973945 209.132813,28.9622663 209.132813,23.6132812 C209.132813,19.0260187 209.911451,14.984718 211.46875,11.4892578 C213.026049,7.99379763 215.01073,5.39551632 217.422852,3.69433594 C219.834973,1.99315556 222.445949,1.14257812 225.255859,1.14257812 C228.42124,1.14257812 231.057607,2.18358334 233.165039,4.265625 C235.272471,6.34766666 236.512368,9.32680354 236.884766,13.203125 L230.867188,13.9140625 C230.511717,11.6627492 229.851567,10.0716192 228.886719,9.140625 C227.92187,8.20963076 226.669279,7.74414062 225.128906,7.74414062 C223.55468,7.74414062 222.039721,8.31119225 220.583984,9.4453125 C219.128248,10.5794328 217.888351,12.4794789 216.864258,15.1455078 C215.840164,17.8115368 215.328125,20.7441246 215.328125,23.9433594 C215.328125,26.9394681 215.920567,29.2372967 217.105469,30.8369141 C218.290371,32.4365314 219.729158,33.2363281 221.421875,33.2363281 C223.029956,33.2363281 224.519524,32.6058006 225.890625,31.3447266 C227.261726,30.0836525 228.285804,28.1666795 228.962891,25.59375 L228.962891,25.59375 Z M244.019531,39 L237.748047,39 L244.121094,1.77734375 L257.705078,1.77734375 C260.210299,1.77734375 262.080723,2.10741857 263.316406,2.76757812 C264.55209,3.42773768 265.555009,4.49413326 266.325195,5.96679688 C267.095381,7.43946049 267.480469,9.30142104 267.480469,11.5527344 C267.480469,14.8535321 266.672209,17.4983625 265.055664,19.4873047 C263.43912,21.4762469 261.115901,22.7076799 258.085938,23.1816406 C258.932296,24.1126349 259.761715,25.4329342 260.574219,27.1425781 C261.928392,30.0201967 263.417961,33.9726311 265.042969,39 L258.289062,39 C258.018228,37.9505156 257.104174,35.0983306 255.546875,30.4433594 C254.734371,28.0566287 253.989587,26.3724007 253.3125,25.390625 C252.821612,24.6966111 252.322268,24.2226575 251.814453,23.96875 C251.306638,23.7148425 250.451829,23.5878906 249.25,23.5878906 L246.660156,23.5878906 L244.019531,39 Z M247.625,18.0019531 L250.951172,18.0019531 C254.099625,18.0019531 256.228185,17.8030619 257.336914,17.4052734 C258.445644,17.007485 259.36816,16.275396 260.104492,15.2089844 C260.840824,14.1425728 261.208984,12.9661523 261.208984,11.6796875 C261.208984,10.2747326 260.743494,9.25065426 259.8125,8.60742188 C259.270831,8.20116984 258.085947,7.99804688 256.257812,7.99804688 L249.351562,7.99804688 L247.625,18.0019531 Z M281.826172,39 L275.529297,39 L278.042969,24.5019531 L269.613281,1.77734375 L276.291016,1.77734375 L280.074219,12.2890625 C280.971359,14.7942834 281.572264,16.6139266 281.876953,17.7480469 C282.418622,16.6139266 283.027991,15.4375061 283.705078,14.21875 L286.574219,9.31835938 L290.890625,1.77734375 L298.177734,1.77734375 L284.1875,25.2128906 L281.826172,39 Z M301.173828,39 L294.902344,39 L301.275391,1.77734375 L313.691406,1.77734375 C315.993501,1.77734375 317.762364,2.10741857 318.998047,2.76757812 C320.23373,3.42773768 321.228186,4.46451116 321.981445,5.87792969 C322.734704,7.29134821 323.111328,9.02212518 323.111328,11.0703125 C323.111328,13.541679 322.658533,15.8141172 321.75293,17.8876953 C320.847326,19.9612734 319.721686,21.4973908 318.375977,22.4960938 C317.030267,23.4947967 315.434905,24.1718732 313.589844,24.5273438 C312.591141,24.7135426 310.610692,24.8066406 307.648438,24.8066406 L303.611328,24.8066406 L301.173828,39 Z M304.677734,18.6367188 L306.607422,18.6367188 C309.705094,18.6367188 311.816726,18.4251323 312.942383,18.0019531 C314.068039,17.5787739 314.994788,16.8043676 315.722656,15.6787109 C316.450524,14.5530543 316.814453,13.2454502 316.814453,11.7558594 C316.814453,10.1477784 316.289719,9.03906555 315.240234,8.4296875 C314.630856,8.07421697 313.225922,7.89648438 311.025391,7.89648438 L306.505859,7.89648438 L304.677734,18.6367188 Z M336.619141,39 L330.347656,39 L335.679688,7.99804688 L326.716797,7.99804688 L327.783203,1.77734375 L351.828125,1.77734375 L350.761719,7.99804688 L341.951172,7.99804688 L336.619141,39 Z M350.431641,24.4003906 C350.431641,21.1842287 350.973302,17.875017 352.056641,14.4726562 C353.427741,10.1054469 355.458971,6.79200349 358.150391,4.53222656 C360.84181,2.27244964 363.956363,1.14257812 367.494141,1.14257812 C371.167336,1.14257812 374.193022,2.53904854 376.571289,5.33203125 C378.949556,8.12501396 380.138672,11.9335696 380.138672,16.7578125 C380.138672,21.1250218 379.288094,25.1536274 377.586914,28.84375 C375.885734,32.5338726 373.774101,35.2591058 371.251953,37.0195312 C368.729805,38.7799567 365.953791,39.6601562 362.923828,39.6601562 C359.301414,39.6601562 356.415375,38.3906377 354.265625,35.8515625 C351.709623,32.8554538 350.431641,29.0384346 350.431641,24.4003906 L350.431641,24.4003906 Z M356.652344,24.2480469 C356.652344,26.9902481 357.325189,29.1780517 358.670898,30.8115234 C360.016608,32.4449951 361.654287,33.2617188 363.583984,33.2617188 C365.141284,33.2617188 366.681633,32.6523498 368.205078,31.4335938 C369.728523,30.2148377 371.053054,28.2132301 372.178711,25.4287109 C373.304368,22.6441918 373.867188,19.8131654 373.867188,16.9355469 C373.867188,13.922511 373.173184,11.552743 371.785156,9.82617188 C370.5664,8.30272676 368.966807,7.54101562 366.986328,7.54101562 C365.395174,7.54101562 363.820971,8.15884799 362.263672,9.39453125 C360.706372,10.6302145 359.381841,12.6148952 358.290039,15.3486328 C357.198237,18.0823704 356.652344,21.0488121 356.652344,24.2480469 L356.652344,24.2480469 Z M388.035156,39 L381.763672,39 L388.136719,1.77734375 L401.720703,1.77734375 C404.225924,1.77734375 406.096348,2.10741857 407.332031,2.76757812 C408.567715,3.42773768 409.570634,4.49413326 410.34082,5.96679688 C411.111006,7.43946049 411.496094,9.30142104 411.496094,11.5527344 C411.496094,14.8535321 410.687834,17.4983625 409.071289,19.4873047 C407.454745,21.4762469 405.131526,22.7076799 402.101562,23.1816406 C402.947921,24.1126349 403.77734,25.4329342 404.589844,27.1425781 C405.944017,30.0201967 407.433586,33.9726311 409.058594,39 L402.304688,39 C402.033853,37.9505156 401.119799,35.0983306 399.5625,30.4433594 C398.749996,28.0566287 398.005212,26.3724007 397.328125,25.390625 C396.837237,24.6966111 396.337893,24.2226575 395.830078,23.96875 C395.322263,23.7148425 394.467454,23.5878906 393.265625,23.5878906 L390.675781,23.5878906 L388.035156,39 Z M391.640625,18.0019531 L394.966797,18.0019531 C398.11525,18.0019531 400.24381,17.8030619 401.352539,17.4052734 C402.461269,17.007485 403.383785,16.275396 404.120117,15.2089844 C404.856449,14.1425728 405.224609,12.9661523 405.224609,11.6796875 C405.224609,10.2747326 404.759119,9.25065426 403.828125,8.60742188 C403.286456,8.20116984 402.101572,7.99804688 400.273438,7.99804688 L393.367188,7.99804688 L391.640625,18.0019531 Z" id="PRISM-ENCRYPTOR" stroke="#000000" fill="#FFFFFF"></path>
    </g>
</svg>